<mxfile host="app.diagrams.net" modified="2021-09-01T23:56:01.757Z" agent="5.0 (Macintosh; Intel Mac OS X 10_15_7) AppleWebKit/537.36 (KHTML, like Gecko) Chrome/92.0.4515.159 Safari/537.36" etag="LOmEkRdseJDV6FnSIopT" version="15.0.5" type="github">
  <diagram id="kgpKYQtTHZ0yAKxKKP6v" name="Page-1">
    <mxGraphModel dx="1306" dy="811" grid="1" gridSize="10" guides="1" tooltips="1" connect="1" arrows="1" fold="1" page="1" pageScale="1" pageWidth="850" pageHeight="1100" math="0" shadow="0">
      <root>
        <mxCell id="0" />
        <mxCell id="1" parent="0" />
        <mxCell id="3nuBFxr9cyL0pnOWT2aG-1" value="APP Frontend" style="shape=umlLifeline;perimeter=lifelinePerimeter;container=1;collapsible=0;recursiveResize=0;rounded=0;shadow=0;strokeWidth=1;" parent="1" vertex="1">
          <mxGeometry x="215" y="80" width="100" height="490" as="geometry" />
        </mxCell>
        <mxCell id="3nuBFxr9cyL0pnOWT2aG-2" value="" style="points=[];perimeter=orthogonalPerimeter;rounded=0;shadow=0;strokeWidth=1;" parent="3nuBFxr9cyL0pnOWT2aG-1" vertex="1">
          <mxGeometry x="45" y="70" width="10" height="60" as="geometry" />
        </mxCell>
        <mxCell id="3nuBFxr9cyL0pnOWT2aG-5" value="APP Backend" style="shape=umlLifeline;perimeter=lifelinePerimeter;container=1;collapsible=0;recursiveResize=0;rounded=0;shadow=0;strokeWidth=1;" parent="1" vertex="1">
          <mxGeometry x="395" y="80" width="100" height="150" as="geometry" />
        </mxCell>
        <mxCell id="3nuBFxr9cyL0pnOWT2aG-6" value="" style="points=[];perimeter=orthogonalPerimeter;rounded=0;shadow=0;strokeWidth=1;" parent="3nuBFxr9cyL0pnOWT2aG-5" vertex="1">
          <mxGeometry x="45" y="80" width="10" height="60" as="geometry" />
        </mxCell>
        <mxCell id="3nuBFxr9cyL0pnOWT2aG-8" value="list products" style="verticalAlign=bottom;endArrow=block;entryX=0.02;entryY=0.092;shadow=0;strokeWidth=1;entryDx=0;entryDy=0;entryPerimeter=0;" parent="1" edge="1">
          <mxGeometry relative="1" as="geometry">
            <mxPoint x="270" y="260" as="sourcePoint" />
            <mxPoint x="635.2" y="257.5999999999999" as="targetPoint" />
          </mxGeometry>
        </mxCell>
        <mxCell id="3nuBFxr9cyL0pnOWT2aG-9" value="store info" style="verticalAlign=bottom;endArrow=block;entryX=1;entryY=0;shadow=0;strokeWidth=1;" parent="1" source="3nuBFxr9cyL0pnOWT2aG-6" edge="1">
          <mxGeometry relative="1" as="geometry">
            <mxPoint x="335" y="200" as="sourcePoint" />
            <mxPoint x="275" y="200" as="targetPoint" />
          </mxGeometry>
        </mxCell>
        <mxCell id="vUYaSE1qAhJmqG3Aiu9O-1" value="&lt;font style=&quot;font-size: 16px&quot;&gt;Transaction Flow Diagram&lt;/font&gt;" style="text;html=1;strokeColor=none;fillColor=none;align=center;verticalAlign=middle;whiteSpace=wrap;rounded=0;" vertex="1" parent="1">
          <mxGeometry x="330" y="30" width="220" height="20" as="geometry" />
        </mxCell>
        <mxCell id="vUYaSE1qAhJmqG3Aiu9O-2" value="ReCharge API" style="shape=umlLifeline;perimeter=lifelinePerimeter;container=1;collapsible=0;recursiveResize=0;rounded=0;shadow=0;strokeWidth=1;" vertex="1" parent="1">
          <mxGeometry x="590" y="80" width="100" height="490" as="geometry" />
        </mxCell>
        <mxCell id="vUYaSE1qAhJmqG3Aiu9O-4" value="app loads" style="verticalAlign=bottom;endArrow=block;entryX=0;entryY=0;shadow=0;strokeWidth=1;" edge="1" parent="1">
          <mxGeometry relative="1" as="geometry">
            <mxPoint x="220" y="155" as="sourcePoint" />
            <mxPoint x="260" y="154.5" as="targetPoint" />
          </mxGeometry>
        </mxCell>
        <mxCell id="vUYaSE1qAhJmqG3Aiu9O-5" value="create product" style="verticalAlign=bottom;endArrow=block;entryX=0.02;entryY=0.092;shadow=0;strokeWidth=1;entryDx=0;entryDy=0;entryPerimeter=0;" edge="1" parent="1">
          <mxGeometry relative="1" as="geometry">
            <mxPoint x="270" y="362" as="sourcePoint" />
            <mxPoint x="635.2" y="363.28" as="targetPoint" />
          </mxGeometry>
        </mxCell>
        <mxCell id="vUYaSE1qAhJmqG3Aiu9O-6" value="get store info (token)" style="verticalAlign=bottom;endArrow=block;shadow=0;strokeWidth=1;" edge="1" parent="1">
          <mxGeometry relative="1" as="geometry">
            <mxPoint x="270" y="170" as="sourcePoint" />
            <mxPoint x="440" y="171" as="targetPoint" />
          </mxGeometry>
        </mxCell>
        <mxCell id="vUYaSE1qAhJmqG3Aiu9O-7" value="update product" style="verticalAlign=bottom;endArrow=block;entryX=0.02;entryY=0.092;shadow=0;strokeWidth=1;entryDx=0;entryDy=0;entryPerimeter=0;" edge="1" parent="1">
          <mxGeometry relative="1" as="geometry">
            <mxPoint x="270" y="418" as="sourcePoint" />
            <mxPoint x="635.2" y="419.28" as="targetPoint" />
          </mxGeometry>
        </mxCell>
        <mxCell id="vUYaSE1qAhJmqG3Aiu9O-8" value="delete product" style="verticalAlign=bottom;endArrow=block;entryX=0.02;entryY=0.092;shadow=0;strokeWidth=1;entryDx=0;entryDy=0;entryPerimeter=0;" edge="1" parent="1">
          <mxGeometry relative="1" as="geometry">
            <mxPoint x="270" y="469" as="sourcePoint" />
            <mxPoint x="635.2" y="470.28" as="targetPoint" />
          </mxGeometry>
        </mxCell>
        <mxCell id="vUYaSE1qAhJmqG3Aiu9O-12" value="" style="verticalAlign=bottom;endArrow=block;entryX=1;entryY=0;shadow=0;strokeWidth=1;" edge="1" parent="1">
          <mxGeometry relative="1" as="geometry">
            <mxPoint x="633" y="483" as="sourcePoint" />
            <mxPoint x="273" y="483" as="targetPoint" />
          </mxGeometry>
        </mxCell>
        <mxCell id="vUYaSE1qAhJmqG3Aiu9O-13" value="" style="verticalAlign=bottom;endArrow=block;entryX=1;entryY=0;shadow=0;strokeWidth=1;" edge="1" parent="1">
          <mxGeometry relative="1" as="geometry">
            <mxPoint x="634" y="433" as="sourcePoint" />
            <mxPoint x="274" y="433" as="targetPoint" />
          </mxGeometry>
        </mxCell>
        <mxCell id="vUYaSE1qAhJmqG3Aiu9O-14" value="" style="verticalAlign=bottom;endArrow=block;entryX=1;entryY=0;shadow=0;strokeWidth=1;" edge="1" parent="1">
          <mxGeometry relative="1" as="geometry">
            <mxPoint x="633" y="380" as="sourcePoint" />
            <mxPoint x="273" y="380" as="targetPoint" />
          </mxGeometry>
        </mxCell>
        <mxCell id="vUYaSE1qAhJmqG3Aiu9O-15" value="" style="verticalAlign=bottom;endArrow=block;entryX=1;entryY=0;shadow=0;strokeWidth=1;" edge="1" parent="1">
          <mxGeometry relative="1" as="geometry">
            <mxPoint x="631" y="274" as="sourcePoint" />
            <mxPoint x="271" y="274" as="targetPoint" />
          </mxGeometry>
        </mxCell>
        <mxCell id="vUYaSE1qAhJmqG3Aiu9O-16" value="view product" style="verticalAlign=bottom;endArrow=block;entryX=0.02;entryY=0.092;shadow=0;strokeWidth=1;entryDx=0;entryDy=0;entryPerimeter=0;" edge="1" parent="1">
          <mxGeometry relative="1" as="geometry">
            <mxPoint x="271" y="310" as="sourcePoint" />
            <mxPoint x="636.2" y="311.28" as="targetPoint" />
          </mxGeometry>
        </mxCell>
        <mxCell id="vUYaSE1qAhJmqG3Aiu9O-17" value="" style="verticalAlign=bottom;endArrow=block;entryX=1;entryY=0;shadow=0;strokeWidth=1;" edge="1" parent="1">
          <mxGeometry relative="1" as="geometry">
            <mxPoint x="632" y="325" as="sourcePoint" />
            <mxPoint x="272" y="325" as="targetPoint" />
          </mxGeometry>
        </mxCell>
        <mxCell id="vUYaSE1qAhJmqG3Aiu9O-18" value="" style="points=[];perimeter=orthogonalPerimeter;rounded=0;shadow=0;strokeWidth=1;" vertex="1" parent="1">
          <mxGeometry x="260" y="250" width="10" height="30" as="geometry" />
        </mxCell>
        <mxCell id="vUYaSE1qAhJmqG3Aiu9O-19" value="" style="points=[];perimeter=orthogonalPerimeter;rounded=0;shadow=0;strokeWidth=1;" vertex="1" parent="1">
          <mxGeometry x="260" y="300" width="10" height="30" as="geometry" />
        </mxCell>
        <mxCell id="vUYaSE1qAhJmqG3Aiu9O-20" value="" style="points=[];perimeter=orthogonalPerimeter;rounded=0;shadow=0;strokeWidth=1;" vertex="1" parent="1">
          <mxGeometry x="260" y="350" width="10" height="40" as="geometry" />
        </mxCell>
        <mxCell id="vUYaSE1qAhJmqG3Aiu9O-21" value="" style="points=[];perimeter=orthogonalPerimeter;rounded=0;shadow=0;strokeWidth=1;" vertex="1" parent="1">
          <mxGeometry x="260" y="410" width="10" height="30" as="geometry" />
        </mxCell>
        <mxCell id="vUYaSE1qAhJmqG3Aiu9O-22" value="" style="points=[];perimeter=orthogonalPerimeter;rounded=0;shadow=0;strokeWidth=1;" vertex="1" parent="1">
          <mxGeometry x="260" y="460" width="10" height="30" as="geometry" />
        </mxCell>
        <mxCell id="vUYaSE1qAhJmqG3Aiu9O-23" value="" style="points=[];perimeter=orthogonalPerimeter;rounded=0;shadow=0;strokeWidth=1;" vertex="1" parent="1">
          <mxGeometry x="635" y="250" width="10" height="30" as="geometry" />
        </mxCell>
        <mxCell id="vUYaSE1qAhJmqG3Aiu9O-24" value="" style="points=[];perimeter=orthogonalPerimeter;rounded=0;shadow=0;strokeWidth=1;" vertex="1" parent="1">
          <mxGeometry x="635" y="300" width="10" height="30" as="geometry" />
        </mxCell>
        <mxCell id="vUYaSE1qAhJmqG3Aiu9O-25" value="" style="points=[];perimeter=orthogonalPerimeter;rounded=0;shadow=0;strokeWidth=1;" vertex="1" parent="1">
          <mxGeometry x="635" y="350" width="10" height="40" as="geometry" />
        </mxCell>
        <mxCell id="vUYaSE1qAhJmqG3Aiu9O-26" value="" style="points=[];perimeter=orthogonalPerimeter;rounded=0;shadow=0;strokeWidth=1;" vertex="1" parent="1">
          <mxGeometry x="635" y="410" width="10" height="30" as="geometry" />
        </mxCell>
        <mxCell id="vUYaSE1qAhJmqG3Aiu9O-27" value="" style="points=[];perimeter=orthogonalPerimeter;rounded=0;shadow=0;strokeWidth=1;" vertex="1" parent="1">
          <mxGeometry x="635" y="460" width="10" height="30" as="geometry" />
        </mxCell>
      </root>
    </mxGraphModel>
  </diagram>
</mxfile>
